<svg width="17" height="16" viewBox="0 0 17 16" fill="none" xmlns="http://www.w3.org/2000/svg">
<path fill-rule="evenodd" clip-rule="evenodd" d="M12.9254 8.90667C12.6894 8.624 12.2694 8.58533 11.9867 8.82133L9.08007 11.2433V3.33333C9.08007 2.96533 8.78141 2.66667 8.41341 2.66667C8.04541 2.66667 7.74674 2.96533 7.74674 3.33333V11.2433L4.84007 8.82133C4.55674 8.58533 4.13674 8.624 3.90141 8.90667C3.66541 9.18933 3.70341 9.61 3.98674 9.84533L7.98674 13.1787C8.01807 13.2053 8.05541 13.218 8.09007 13.238C8.11741 13.254 8.14141 13.2727 8.17141 13.2847C8.24941 13.3153 8.33074 13.3333 8.41341 13.3333C8.49607 13.3333 8.57741 13.3153 8.65541 13.2847C8.68541 13.2727 8.70941 13.254 8.73674 13.238C8.77141 13.218 8.80874 13.2053 8.84007 13.1787L12.8401 9.84533C13.1227 9.61 13.1614 9.18933 12.9254 8.90667Z" fill="#52597A"/>
</svg>
