<svg width="17" height="16" viewBox="0 0 17 16" fill="none" xmlns="http://www.w3.org/2000/svg">
<path fill-rule="evenodd" clip-rule="evenodd" d="M3.19107 4H10.9691C11.7657 4 12.4137 4.726 12.4137 5.61933V10.3807C12.4137 11.274 11.7657 12 10.9691 12H3.19107C2.3944 12 1.74707 11.274 1.74707 10.3807V5.61933C1.74707 4.726 2.3944 4 3.19107 4ZM13.7467 6.66667C13.7467 6.29867 14.0454 6 14.4134 6C14.7814 6 15.0801 6.29867 15.0801 6.66667V9.33333C15.0801 9.70133 14.7814 10 14.4134 10C14.0454 10 13.7467 9.70133 13.7467 9.33333V6.66667Z" fill="#52597A"/>
</svg>
