<svg width="17" height="16" viewBox="0 0 17 16" fill="none" xmlns="http://www.w3.org/2000/svg">
<path fill-rule="evenodd" clip-rule="evenodd" d="M8.41317 4.66667C9.14917 4.66667 9.7465 4.06933 9.7465 3.33333C9.7465 2.59733 9.14917 2 8.41317 2C7.67717 2 7.07983 2.59733 7.07983 3.33333C7.07983 4.06933 7.67717 4.66667 8.41317 4.66667ZM8.41317 6.66667C7.67717 6.66667 7.07983 7.264 7.07983 8C7.07983 8.736 7.67717 9.33333 8.41317 9.33333C9.14917 9.33333 9.7465 8.736 9.7465 8C9.7465 7.264 9.14917 6.66667 8.41317 6.66667ZM7.07983 12.6667C7.07983 11.9307 7.67717 11.3333 8.41317 11.3333C9.14917 11.3333 9.7465 11.9307 9.7465 12.6667C9.7465 13.4027 9.14917 14 8.41317 14C7.67717 14 7.07983 13.4027 7.07983 12.6667Z" fill="#A3A8C2"/>
</svg>
